# xmcd CD database file
#
# Track frame offsets:
#	150
#	20175
#	41424
#	65145
#	84186
#	92139
#	114588
#
# Disc length: 1854 seconds
#
# Revision: 0
# Processed by: cddbd v1.5.1PL0 Copyright (c) Steve Scherf et al.
# Submitted via: CDex 1.50
#
DISCID=57073c07
DTITLE=NAO - 月の下の生命たち
DYEAR=2004
DGENRE=Pop
TTITLE0=Lives under the Moon
TTITLE1=虹の彼方へ
TTITLE2=Color of Soul
TTITLE3=ラビリンス
TTITLE4=ビーナスの羽
TTITLE5=Beautiful World
TTITLE6=今日が終わっても
EXTD=YEAR: 2004
EXTT0=
EXTT1=
EXTT2=
EXTT3=
EXTT4=
EXTT5=
EXTT6=
PLAYORDER=
